<?xml version="1.0" encoding="UTF-8" standalone="no"?>
<!-- Created with Inkscape (http://www.inkscape.org/) -->

<svg
   width="205.02443mm"
   height="183.56271mm"
   viewBox="0 0 205.02443 183.56271"
   version="1.1"
   id="svg1"
   xml:space="preserve"
   xmlns="http://www.w3.org/2000/svg"
   xmlns:svg="http://www.w3.org/2000/svg"><defs
     id="defs1" /><g
     id="layer1"
     transform="translate(-2.3492569,-2.2674532)"><path
       style="opacity:1;fill:#4166f5;fill-opacity:1;fill-rule:nonzero;stroke-width:1.17218"
       d="m 66.334321,185.42497 c -3.812609,-0.97824 -3.617512,-0.79941 -33.3375,-30.55829 C 4.8354609,126.66845 4.3157831,126.12233 3.428245,123.79391 1.932766,119.8706 2.0186566,18.581778 3.5193822,16.314025 c 2.0046973,-3.029302 6.5310048,-4.509678 9.4959968,-3.105766 2.62481,1.242839 48.521955,47.571514 49.740719,50.208388 1.025842,2.219473 1.025842,2.219473 1.208154,28.837145 0.193956,28.317598 0.14162,27.565938 2.053733,29.496458 2.56322,2.58787 0.322081,2.40541 29.563866,2.40694 29.971719,9.8e-4 29.002049,-0.089 31.431259,2.93387 2.30797,2.87195 2.25477,2.16039 2.14055,28.63503 -0.12179,28.22608 0.093,26.97343 -5.02617,29.29431 -1.71718,0.77849 -54.885226,1.15068 -57.793169,0.40457 z M 197.23495,174.2097 c -1.53567,-0.3845 -3.5631,-2.30782 -26.00808,-24.67257 C 142.09808,120.51248 145.86924,128.47158 145.64,95.535423 145.38754,59.265514 149.68385,63.513874 113.00641,63.266053 76.756281,63.02112 80.733803,66.791229 80.745043,32.687016 80.756296,-1.4620644 76.350389,2.3165662 115.99456,2.4560583 c 28.36965,0.099823 28.36965,0.099823 30.19278,1.0778912 2.82116,1.5134895 58.44501,57.3596135 59.85755,60.0967305 1.28019,2.480665 1.89436,102.72691 0.64952,106.01535 -1.30718,3.45313 -5.60797,5.52802 -9.45946,4.56367 z"
       id="path1" /><path
       style="opacity:1;fill:#4166f5;fill-opacity:1;fill-rule:nonzero;stroke-width:0.360796"
       d="m 196.18182,173.38232 c -1.0318,-0.62904 -35.799,-34.60453 -41.93863,-40.98363 -4.81358,-5.00131 -7.06409,-8.71436 -7.9467,-13.11103 -0.35801,-1.7834 -0.45052,-6.80686 -0.3862,-20.970709 0.098,-21.572742 -0.19698,-27.598103 -1.48912,-30.420526 -0.99675,-2.17718 -2.13767,-3.106933 -4.92733,-4.015356 -1.79939,-0.585954 -4.28821,-0.666332 -26.6989,-0.862233 C 88.163087,62.803517 88.073519,62.800044 86.020807,61.980824 83.581762,61.007423 82.361065,59.681312 81.549536,57.123431 81.03117,55.489581 80.940531,52.628364 80.850022,35.041784 80.792832,23.929265 80.897442,13.40426 81.082484,11.652884 81.564881,7.0871572 82.854253,4.9084021 85.802923,3.6763685 88.64239,2.4899632 93.237143,2.3483038 119.31568,2.6431471 l 25.46254,0.2878787 1.59717,1.0420972 c 1.69744,1.1075228 51.9849,51.239893 56.78773,56.612582 l 2.83784,3.174574 0.27013,4.582541 c 0.56783,9.633022 1.11863,69.02638 0.78924,85.10308 l -0.32656,15.93805 -0.96957,1.46512 c -1.95671,2.95679 -6.79123,4.23487 -9.58238,2.53325 z"
       id="path2" /></g></svg>
